<?xml version="1.0" encoding="UTF-8"?>
<svg width="256px" height="256px" viewBox="0 0 256 256" version="1.1" xmlns="http://www.w3.org/2000/svg" xmlns:xlink="http://www.w3.org/1999/xlink">
    <!-- Generator: Sketch 52.5 (67469) - http://www.bohemiancoding.com/sketch -->
    <title>Group 2</title>
    <desc>Created with Sketch.</desc>
    <defs>
        <linearGradient x1="50%" y1="0%" x2="50%" y2="100%" id="linearGradient-1">
            <stop stop-color="#FF0079" offset="0%"></stop>
            <stop stop-color="#FF0044" offset="100%"></stop>
        </linearGradient>
    </defs>
    <g id="Page-1" stroke="none" stroke-width="1" fill="none" fill-rule="evenodd">
        <g id="Group-2">
            <path d="M71.7887856,-2.90035286e-15 L184.211214,2.90035286e-15 C209.173739,-1.68518854e-15 218.225754,2.59911711 227.35168,7.47971571 C236.477606,12.3603143 243.639686,19.5223944 248.520284,28.6483203 C253.400883,37.7742462 256,46.8262609 256,71.7887856 L256,184.211214 C256,209.173739 253.400883,218.225754 248.520284,227.35168 C243.639686,236.477606 236.477606,243.639686 227.35168,248.520284 C218.225754,253.400883 209.173739,256 184.211214,256 L71.7887856,256 C46.8262609,256 37.7742462,253.400883 28.6483203,248.520284 C19.5223944,243.639686 12.3603143,236.477606 7.47971571,227.35168 C2.59911711,218.225754 1.12345902e-15,209.173739 -1.93356857e-15,184.211214 L1.93356857e-15,71.7887856 C-1.12345902e-15,46.8262609 2.59911711,37.7742462 7.47971571,28.6483203 C12.3603143,19.5223944 19.5223944,12.3603143 28.6483203,7.47971571 C37.7742462,2.59911711 46.8262609,1.68518854e-15 71.7887856,-2.90035286e-15 Z" id="Rectangle" fill="url(#linearGradient-1)" fill-rule="nonzero"></path>
            <path d="M54,76 L119.808,76 L119.808,92.416 L72.144,92.416 L72.144,119.2 L117.072,119.2 L117.072,135.616 L72.144,135.616 L72.144,177.952 L54,177.952 L54,76 Z M148.896,149.44 C149.472003,154.624026 151.487983,158.655986 154.944,161.536 C158.400017,164.416014 162.575976,165.856 167.472,165.856 C171.792022,165.856 175.415985,164.968009 178.344,163.192 C181.272015,161.415991 183.839989,159.184013 186.048,156.496 L198.432,165.856 C194.39998,170.848025 189.888025,174.399989 184.896,176.512 C179.903975,178.624011 174.672027,179.68 169.2,179.68 C164.015974,179.68 159.120023,178.816009 154.512,177.088 C149.903977,175.359991 145.920017,172.912016 142.56,169.744 C139.199983,166.575984 136.53601,162.760022 134.568,158.296 C132.59999,153.831978 131.616,148.864027 131.616,143.392 C131.616,137.919973 132.59999,132.952022 134.568,128.488 C136.53601,124.023978 139.199983,120.208016 142.56,117.04 C145.920017,113.871984 149.903977,111.424009 154.512,109.696 C159.120023,107.967991 164.015974,107.104 169.2,107.104 C174.000024,107.104 178.39198,107.943992 182.376,109.624 C186.36002,111.304008 189.767986,113.727984 192.6,116.896 C195.432014,120.064016 197.639992,123.975977 199.224,128.632 C200.808008,133.288023 201.6,138.63997 201.6,144.688 L201.6,149.44 L148.896,149.44 Z M184.32,136.48 C184.224,131.391975 182.640015,127.384015 179.568,124.456 C176.495985,121.527985 172.224027,120.064 166.752,120.064 C161.567974,120.064 157.464015,121.551985 154.44,124.528 C151.415985,127.504015 149.568003,131.487975 148.896,136.48 L184.32,136.48 Z" id="Fe" fill="#FFFFFF"></path>
        </g>
    </g>
</svg>